<svg width="73" height="17" viewBox="0 0 73 17" fill="none" xmlns="http://www.w3.org/2000/svg">
<path d="M0.664062 1.64912H9.35267V3.53267H2.62862V8.21115H8.52229V10.0744H2.62862V16.2922H0.664062V1.64912Z" fill="url(#paint0_linear_306_7)"/>
<path d="M12.1247 0.616211H14.0082V16.2922H12.1247V0.616211Z" fill="url(#paint1_linear_306_7)"/>
<path d="M19.9202 16.6162C19.1641 16.6162 18.5363 16.3867 18.0367 15.9276C17.5506 15.455 17.2941 14.8474 17.2671 14.1048V7.90735H19.1506V13.4365C19.1776 13.8955 19.3059 14.2668 19.5354 14.5504C19.7785 14.8339 20.1565 14.9825 20.6696 14.996C21.1422 14.996 21.5607 14.8609 21.9253 14.5909C22.3034 14.3074 22.6072 13.9293 22.8367 13.4567C23.0662 12.9706 23.181 12.4238 23.181 11.8162V7.90735H25.0645V16.2922H23.343L23.181 14.2263L23.2823 14.5909C23.1202 14.9825 22.8704 15.3335 22.5329 15.6441C22.2088 15.9411 21.824 16.1774 21.3785 16.3529C20.9329 16.5284 20.4468 16.6162 19.9202 16.6162Z" fill="url(#paint2_linear_306_7)"/>
<path d="M29.1334 4.22127H31.0169V7.94786H33.3258V9.42634H31.0169V16.2922H29.1334V9.42634H27.5941V7.94786H29.1334V4.22127Z" fill="url(#paint3_linear_306_7)"/>
<path d="M36.4118 4.22127H38.2954V7.94786H40.6043V9.42634H38.2954V16.2922H36.4118V9.42634H34.8726V7.94786H36.4118V4.22127Z" fill="url(#paint4_linear_306_7)"/>
<path d="M46.7688 16.4947C45.8102 16.4947 44.9865 16.3057 44.2979 15.9276C43.6093 15.536 43.076 15.0095 42.6979 14.3479C42.3334 13.6728 42.1511 12.9031 42.1511 12.039C42.1511 11.2154 42.3604 10.466 42.7789 9.7909C43.1975 9.11579 43.7578 8.57571 44.4599 8.17064C45.1621 7.76558 45.9452 7.56305 46.8093 7.56305C47.9165 7.56305 48.8346 7.8871 49.5637 8.5352C50.2929 9.1833 50.7857 10.0744 51.0422 11.2086L44.1359 13.639L43.6903 12.5251L49.3612 10.4592L48.9561 10.7225C48.7941 10.277 48.5241 9.89216 48.146 9.56811C47.768 9.23056 47.2751 9.06178 46.6675 9.06178C46.1545 9.06178 45.6954 9.19005 45.2903 9.44659C44.8853 9.68963 44.568 10.0272 44.3384 10.4592C44.1089 10.8913 43.9941 11.3841 43.9941 11.9377C43.9941 12.5183 44.1156 13.0314 44.3587 13.477C44.6017 13.909 44.9325 14.2533 45.3511 14.5099C45.7832 14.7529 46.2692 14.8744 46.8093 14.8744C47.1739 14.8744 47.5249 14.8069 47.8625 14.6719C48.2135 14.5369 48.5376 14.3614 48.8346 14.1453L49.7055 15.5428C49.287 15.8263 48.8144 16.0559 48.2878 16.2314C47.7747 16.4069 47.2684 16.4947 46.7688 16.4947Z" fill="url(#paint5_linear_306_7)"/>
<path d="M55.0834 7.90735L55.2656 10.3377L55.1644 10.0137C55.3804 9.5006 55.691 9.06853 56.096 8.71748C56.5146 8.35292 56.9467 8.07613 57.3922 7.8871C57.8513 7.68457 58.2496 7.5833 58.5872 7.5833L58.4859 9.44659C57.8513 9.40608 57.291 9.5276 56.8049 9.81115C56.3323 10.0947 55.9543 10.4728 55.6707 10.9453C55.4007 11.4179 55.2656 11.9242 55.2656 12.4643V16.2922H53.4024V7.90735H55.0834Z" fill="url(#paint6_linear_306_7)"/>
<path d="M60.2677 1.64912H62.7588L72.2981 16.2922H69.7867L60.2677 1.64912ZM60.0652 16.2922L65.1487 8.33267L66.1006 10.2365L62.4955 16.2922H60.0652ZM66.1614 7.62381L69.7259 1.64912H72.0955L67.2145 9.26431L66.1614 7.62381Z" fill="url(#paint7_linear_306_7)"/>
<defs>
<linearGradient id="paint0_linear_306_7" x1="2.98803" y1="4.26658" x2="78.3045" y2="18.8235" gradientUnits="userSpaceOnUse">
<stop offset="0.00898146" stop-color="#6833FF"/>
<stop offset="1" stop-color="#B296FF"/>
</linearGradient>
<linearGradient id="paint1_linear_306_7" x1="2.98803" y1="4.26658" x2="78.3045" y2="18.8235" gradientUnits="userSpaceOnUse">
<stop offset="0.00898146" stop-color="#6833FF"/>
<stop offset="1" stop-color="#B296FF"/>
</linearGradient>
<linearGradient id="paint2_linear_306_7" x1="2.98803" y1="4.26658" x2="78.3045" y2="18.8235" gradientUnits="userSpaceOnUse">
<stop offset="0.00898146" stop-color="#6833FF"/>
<stop offset="1" stop-color="#B296FF"/>
</linearGradient>
<linearGradient id="paint3_linear_306_7" x1="2.98803" y1="4.26658" x2="78.3045" y2="18.8235" gradientUnits="userSpaceOnUse">
<stop offset="0.00898146" stop-color="#6833FF"/>
<stop offset="1" stop-color="#B296FF"/>
</linearGradient>
<linearGradient id="paint4_linear_306_7" x1="2.98803" y1="4.26658" x2="78.3045" y2="18.8235" gradientUnits="userSpaceOnUse">
<stop offset="0.00898146" stop-color="#6833FF"/>
<stop offset="1" stop-color="#B296FF"/>
</linearGradient>
<linearGradient id="paint5_linear_306_7" x1="2.98803" y1="4.26658" x2="78.3045" y2="18.8235" gradientUnits="userSpaceOnUse">
<stop offset="0.00898146" stop-color="#6833FF"/>
<stop offset="1" stop-color="#B296FF"/>
</linearGradient>
<linearGradient id="paint6_linear_306_7" x1="2.98803" y1="4.26658" x2="78.3045" y2="18.8235" gradientUnits="userSpaceOnUse">
<stop offset="0.00898146" stop-color="#6833FF"/>
<stop offset="1" stop-color="#B296FF"/>
</linearGradient>
<linearGradient id="paint7_linear_306_7" x1="2.98803" y1="4.26658" x2="78.3045" y2="18.8235" gradientUnits="userSpaceOnUse">
<stop offset="0.00898146" stop-color="#6833FF"/>
<stop offset="1" stop-color="#B296FF"/>
</linearGradient>
</defs>
</svg>
